<svg xmlns="http://www.w3.org/2000/svg" xmlns:xlink="http://www.w3.org/1999/xlink" width="1920" zoomAndPan="magnify" viewBox="0 0 1440 1439.999935" height="1920" preserveAspectRatio="xMidYMid meet" version="1.0"><defs><g/></defs><g fill="#ffffff" fill-opacity="1"><g transform="translate(152.343204, 735.357937)"><g><path d="M 7.546875 0 L 7.546875 -1.96875 C 9.859375 -2.664062 11.441406 -4.171875 12.296875 -6.484375 C 13.148438 -8.804688 13.578125 -13.035156 13.578125 -19.171875 L 13.578125 -80.453125 C 13.578125 -86.191406 13.222656 -90.644531 12.515625 -93.8125 C 11.816406 -96.988281 10.785156 -99.28125 9.421875 -100.6875 C 8.066406 -102.09375 6.382812 -103.097656 4.375 -103.703125 L 4.375 -105.671875 L 22.640625 -105.671875 L 62.046875 -40.609375 L 100.6875 -105.671875 L 117.75 -105.671875 L 117.75 -103.703125 C 115.726562 -103.097656 114.039062 -102.09375 112.6875 -100.6875 C 111.332031 -99.28125 110.300781 -96.988281 109.59375 -93.8125 C 108.882812 -90.644531 108.53125 -86.191406 108.53125 -80.453125 L 108.53125 -19.171875 C 108.53125 -13.035156 108.957031 -8.804688 109.8125 -6.484375 C 110.664062 -4.171875 112.253906 -2.664062 114.578125 -1.96875 L 114.578125 0 L 90.125 0 L 90.125 -1.96875 C 92.4375 -2.664062 94.019531 -4.171875 94.875 -6.484375 C 95.726562 -8.804688 96.15625 -13.035156 96.15625 -19.171875 L 96.15625 -93.4375 L 57.8125 -28.6875 L 54.953125 -28.6875 L 16.296875 -92.234375 L 16.296875 -25.203125 C 16.296875 -19.472656 16.695312 -15.046875 17.5 -11.921875 C 18.3125 -8.804688 19.472656 -6.519531 20.984375 -5.0625 C 22.492188 -3.601562 24.351562 -2.570312 26.5625 -1.96875 L 26.5625 0 Z M 7.546875 0 "/></g></g></g><g fill="#ffffff" fill-opacity="1"><g transform="translate(301.440798, 735.357937)"><g><path d="M 7.703125 0 L 7.703125 -1.96875 C 10.015625 -2.664062 11.597656 -4.171875 12.453125 -6.484375 C 13.304688 -8.804688 13.734375 -13.035156 13.734375 -19.171875 L 13.734375 -86.5 C 13.734375 -92.738281 13.304688 -96.988281 12.453125 -99.25 C 11.597656 -101.507812 10.015625 -102.992188 7.703125 -103.703125 L 7.703125 -105.671875 L 32.15625 -105.671875 L 32.15625 -103.703125 C 29.84375 -102.992188 28.253906 -101.507812 27.390625 -99.25 C 26.535156 -96.988281 26.109375 -92.738281 26.109375 -86.5 L 26.109375 -19.171875 C 26.109375 -13.035156 26.535156 -8.804688 27.390625 -6.484375 C 28.253906 -4.171875 29.84375 -2.664062 32.15625 -1.96875 L 32.15625 0 Z M 7.703125 0 "/></g></g></g><g fill="#ffffff" fill-opacity="1"><g transform="translate(364.980087, 735.357937)"><g><path d="M 43.015625 1.515625 C 35.066406 1.515625 27.921875 0.359375 21.578125 -1.953125 C 15.242188 -4.273438 10.316406 -6.691406 6.796875 -9.203125 L 6.03125 -30.1875 L 7.703125 -30.5 C 9.710938 -25.257812 12.351562 -20.398438 15.625 -15.921875 C 18.894531 -11.441406 23.046875 -7.867188 28.078125 -5.203125 C 33.109375 -2.535156 39.097656 -1.203125 46.046875 -1.203125 C 50.066406 -1.203125 53.785156 -2.03125 57.203125 -3.6875 C 60.628906 -5.351562 63.375 -7.695312 65.4375 -10.71875 C 67.5 -13.738281 68.53125 -17.257812 68.53125 -21.28125 C 68.53125 -25.101562 67.523438 -28.421875 65.515625 -31.234375 C 63.503906 -34.054688 60.882812 -36.523438 57.65625 -38.640625 C 54.4375 -40.753906 51.039062 -42.59375 47.46875 -44.15625 C 43.894531 -45.71875 40.5 -47.148438 37.28125 -48.453125 C 31.34375 -50.867188 26.1875 -53.304688 21.8125 -55.765625 C 17.4375 -58.234375 14.066406 -61.203125 11.703125 -64.671875 C 9.335938 -68.148438 8.15625 -72.554688 8.15625 -77.890625 C 8.15625 -83.828125 9.6875 -88.929688 12.75 -93.203125 C 15.820312 -97.484375 20.125 -100.804688 25.65625 -103.171875 C 31.195312 -105.535156 37.640625 -106.71875 44.984375 -106.71875 C 51.828125 -106.71875 57.710938 -105.960938 62.640625 -104.453125 C 67.578125 -102.941406 71.503906 -101.382812 74.421875 -99.78125 L 75.03125 -82.265625 L 73.515625 -81.8125 C 70.691406 -88.351562 66.585938 -93.738281 61.203125 -97.96875 C 55.828125 -102.195312 48.8125 -104.3125 40.15625 -104.3125 C 36.125 -104.3125 32.375 -103.53125 28.90625 -101.96875 C 25.4375 -100.40625 22.671875 -98.164062 20.609375 -95.25 C 18.546875 -92.332031 17.515625 -88.707031 17.515625 -84.375 C 17.515625 -80.851562 18.367188 -77.785156 20.078125 -75.171875 C 21.785156 -72.554688 24.046875 -70.289062 26.859375 -68.375 C 29.679688 -66.46875 32.753906 -64.785156 36.078125 -63.328125 C 39.398438 -61.867188 42.671875 -60.484375 45.890625 -59.171875 C 51.523438 -56.960938 56.804688 -54.597656 61.734375 -52.078125 C 66.671875 -49.566406 70.671875 -46.5 73.734375 -42.875 C 76.804688 -39.25 78.34375 -34.566406 78.34375 -28.828125 C 78.34375 -22.585938 76.628906 -17.175781 73.203125 -12.59375 C 69.785156 -8.019531 65.382812 -4.523438 60 -2.109375 C 54.613281 0.304688 48.953125 1.515625 43.015625 1.515625 Z M 43.015625 1.515625 "/></g></g></g><g fill="#ffffff" fill-opacity="1"><g transform="translate(471.826692, 735.357937)"><g><path d="M 30.046875 0 L 30.046875 -1.96875 C 32.359375 -2.664062 33.941406 -4.171875 34.796875 -6.484375 C 35.648438 -8.804688 36.078125 -13.035156 36.078125 -19.171875 L 36.078125 -103.25 L 28.6875 -103.25 C 21.9375 -103.25 16.800781 -102.191406 13.28125 -100.078125 C 9.757812 -97.960938 6.691406 -94.191406 4.078125 -88.765625 L 2.421875 -89.0625 L 3.328125 -105.671875 L 81.0625 -105.671875 L 81.96875 -89.0625 L 80.3125 -88.765625 C 77.789062 -94.191406 74.769531 -97.960938 71.25 -100.078125 C 67.726562 -102.191406 62.546875 -103.25 55.703125 -103.25 L 48.609375 -103.25 L 48.609375 -19.171875 C 48.609375 -13.035156 49.035156 -8.804688 49.890625 -6.484375 C 50.742188 -4.171875 52.328125 -2.664062 54.640625 -1.96875 L 54.640625 0 Z M 30.046875 0 "/></g></g></g><g fill="#ffffff" fill-opacity="1"><g transform="translate(580.031331, 735.357937)"><g><path d="M 7.703125 0 L 7.703125 -1.96875 C 10.015625 -2.664062 11.597656 -4.171875 12.453125 -6.484375 C 13.304688 -8.804688 13.734375 -13.035156 13.734375 -19.171875 L 13.734375 -86.5 C 13.734375 -92.738281 13.304688 -96.988281 12.453125 -99.25 C 11.597656 -101.507812 10.015625 -102.992188 7.703125 -103.703125 L 7.703125 -105.671875 L 77.890625 -105.671875 L 79.546875 -86.046875 L 77.890625 -85.59375 C 75.273438 -92.226562 71.625 -96.851562 66.9375 -99.46875 C 62.257812 -102.09375 56.050781 -103.40625 48.3125 -103.40625 L 26.109375 -103.40625 L 26.109375 -57.671875 L 45.4375 -57.671875 C 51.175781 -57.671875 55.628906 -58.046875 58.796875 -58.796875 C 61.960938 -59.546875 64.273438 -60.703125 65.734375 -62.265625 C 67.191406 -63.828125 68.222656 -65.710938 68.828125 -67.921875 L 70.640625 -67.921875 L 70.640625 -45.140625 L 68.828125 -45.140625 C 68.222656 -47.453125 67.191406 -49.363281 65.734375 -50.875 C 64.273438 -52.382812 61.960938 -53.515625 58.796875 -54.265625 C 55.628906 -55.023438 51.175781 -55.40625 45.4375 -55.40625 L 26.109375 -55.40625 L 26.109375 -9.0625 C 26.109375 -4.53125 28.375 -2.265625 32.90625 -2.265625 L 52.53125 -2.265625 C 59.78125 -2.265625 65.769531 -3.519531 70.5 -6.03125 C 75.226562 -8.550781 78.953125 -13.332031 81.671875 -20.375 L 83.328125 -20.078125 L 82.125 0 Z M 7.703125 0 "/></g></g></g><g fill="#ffffff" fill-opacity="1"><g transform="translate(692.611965, 735.357937)"><g><path d="M 84.53125 1.0625 C 80.707031 1.0625 77.6875 0.128906 75.46875 -1.734375 C 73.257812 -3.597656 71.320312 -6.316406 69.65625 -9.890625 C 68 -13.460938 66.066406 -17.863281 63.859375 -23.09375 C 61.640625 -28.332031 59.773438 -32.910156 58.265625 -36.828125 C 56.753906 -40.753906 55.117188 -44.023438 53.359375 -46.640625 C 51.597656 -49.253906 49.359375 -51.21875 46.640625 -52.53125 C 43.921875 -53.84375 40.300781 -54.5 35.78125 -54.5 L 26.109375 -54.5 L 26.109375 -19.171875 C 26.109375 -13.035156 26.535156 -8.804688 27.390625 -6.484375 C 28.253906 -4.171875 29.84375 -2.664062 32.15625 -1.96875 L 32.15625 0 L 7.703125 0 L 7.703125 -1.96875 C 10.015625 -2.664062 11.597656 -4.171875 12.453125 -6.484375 C 13.304688 -8.804688 13.734375 -13.035156 13.734375 -19.171875 L 13.734375 -86.5 C 13.734375 -92.738281 13.304688 -96.988281 12.453125 -99.25 C 11.597656 -101.507812 10.015625 -102.992188 7.703125 -103.703125 L 7.703125 -105.671875 L 37.4375 -105.671875 C 47.695312 -105.671875 55.695312 -104.640625 61.4375 -102.578125 C 67.175781 -100.515625 71.226562 -97.71875 73.59375 -94.1875 C 75.957031 -90.664062 77.140625 -86.644531 77.140625 -82.125 C 77.140625 -75.070312 74.625 -69.054688 69.59375 -64.078125 C 64.5625 -59.097656 57.113281 -56.054688 47.25 -54.953125 C 51.875 -54.347656 55.644531 -53.3125 58.5625 -51.84375 C 61.488281 -50.382812 63.90625 -48.421875 65.8125 -45.953125 C 67.726562 -43.492188 69.441406 -40.503906 70.953125 -36.984375 C 72.460938 -33.460938 74.117188 -29.382812 75.921875 -24.75 C 78.335938 -18.71875 80.375 -14.039062 82.03125 -10.71875 C 83.695312 -7.394531 85.234375 -5.050781 86.640625 -3.6875 C 88.054688 -2.332031 89.617188 -1.65625 91.328125 -1.65625 C 91.828125 -1.65625 92.253906 -1.65625 92.609375 -1.65625 C 92.960938 -1.65625 93.335938 -1.707031 93.734375 -1.8125 L 93.734375 0 C 92.628906 0.40625 91.195312 0.679688 89.4375 0.828125 C 87.675781 0.984375 86.039062 1.0625 84.53125 1.0625 Z M 26.109375 -56.765625 L 38.796875 -56.765625 C 47.453125 -56.765625 53.867188 -58.800781 58.046875 -62.875 C 62.222656 -66.945312 64.3125 -72.203125 64.3125 -78.640625 C 64.3125 -83.171875 63.273438 -87.296875 61.203125 -91.015625 C 59.140625 -94.742188 55.816406 -97.738281 51.234375 -100 C 46.660156 -102.269531 40.648438 -103.40625 33.203125 -103.40625 C 32.097656 -103.40625 30.941406 -103.378906 29.734375 -103.328125 C 28.523438 -103.273438 27.316406 -103.195312 26.109375 -103.09375 Z M 26.109375 -56.765625 "/></g></g></g><g fill="#ffffff" fill-opacity="1"><g transform="translate(808.663224, 735.357937)"><g/></g></g><g fill="#ffffff" fill-opacity="1"><g transform="translate(864.054123, 735.357937)"><g><path d="M -9.65625 18.109375 C -11.570312 18.109375 -13.054688 17.90625 -14.109375 17.5 C -15.171875 17.101562 -15.703125 16.203125 -15.703125 14.796875 C -15.703125 13.179688 -14.972656 11.617188 -13.515625 10.109375 C -12.054688 8.597656 -10.015625 7.84375 -7.390625 7.84375 C -5.285156 7.84375 -3.148438 8.019531 -0.984375 8.375 C 1.179688 8.726562 4.078125 9.304688 7.703125 10.109375 C 8.910156 9.304688 10.117188 8.222656 11.328125 6.859375 C 12.535156 5.503906 13.566406 3.414062 14.421875 0.59375 C 15.273438 -2.21875 15.703125 -6.140625 15.703125 -11.171875 L 15.703125 -86.5 C 15.703125 -92.738281 15.273438 -96.988281 14.421875 -99.25 C 13.566406 -101.507812 11.976562 -102.992188 9.65625 -103.703125 L 9.65625 -105.671875 L 33.96875 -105.671875 L 33.96875 -103.703125 C 31.65625 -102.992188 30.066406 -101.507812 29.203125 -99.25 C 28.347656 -96.988281 27.921875 -92.738281 27.921875 -86.5 L 27.921875 -29.59375 C 27.921875 -19.925781 26.132812 -11.519531 22.5625 -4.375 C 18.988281 2.769531 14.359375 8.300781 8.671875 12.21875 C 2.992188 16.144531 -3.113281 18.109375 -9.65625 18.109375 Z M -9.65625 18.109375 "/></g></g></g><g fill="#ffffff" fill-opacity="1"><g transform="translate(929.404165, 735.357937)"><g><path d="M 7.703125 0 L 7.703125 -1.96875 C 10.015625 -2.664062 11.597656 -4.171875 12.453125 -6.484375 C 13.304688 -8.804688 13.734375 -13.035156 13.734375 -19.171875 L 13.734375 -86.5 C 13.734375 -92.738281 13.304688 -96.988281 12.453125 -99.25 C 11.597656 -101.507812 10.015625 -102.992188 7.703125 -103.703125 L 7.703125 -105.671875 L 77.890625 -105.671875 L 79.546875 -86.046875 L 77.890625 -85.59375 C 75.273438 -92.226562 71.625 -96.851562 66.9375 -99.46875 C 62.257812 -102.09375 56.050781 -103.40625 48.3125 -103.40625 L 26.109375 -103.40625 L 26.109375 -57.671875 L 45.4375 -57.671875 C 51.175781 -57.671875 55.628906 -58.046875 58.796875 -58.796875 C 61.960938 -59.546875 64.273438 -60.703125 65.734375 -62.265625 C 67.191406 -63.828125 68.222656 -65.710938 68.828125 -67.921875 L 70.640625 -67.921875 L 70.640625 -45.140625 L 68.828125 -45.140625 C 68.222656 -47.453125 67.191406 -49.363281 65.734375 -50.875 C 64.273438 -52.382812 61.960938 -53.515625 58.796875 -54.265625 C 55.628906 -55.023438 51.175781 -55.40625 45.4375 -55.40625 L 26.109375 -55.40625 L 26.109375 -9.0625 C 26.109375 -4.53125 28.375 -2.265625 32.90625 -2.265625 L 52.53125 -2.265625 C 59.78125 -2.265625 65.769531 -3.519531 70.5 -6.03125 C 75.226562 -8.550781 78.953125 -13.332031 81.671875 -20.375 L 83.328125 -20.078125 L 82.125 0 Z M 7.703125 0 "/></g></g></g><g fill="#ffffff" fill-opacity="1"><g transform="translate(1041.984799, 735.357937)"><g><path d="M 84.53125 1.0625 C 80.707031 1.0625 77.6875 0.128906 75.46875 -1.734375 C 73.257812 -3.597656 71.320312 -6.316406 69.65625 -9.890625 C 68 -13.460938 66.066406 -17.863281 63.859375 -23.09375 C 61.640625 -28.332031 59.773438 -32.910156 58.265625 -36.828125 C 56.753906 -40.753906 55.117188 -44.023438 53.359375 -46.640625 C 51.597656 -49.253906 49.359375 -51.21875 46.640625 -52.53125 C 43.921875 -53.84375 40.300781 -54.5 35.78125 -54.5 L 26.109375 -54.5 L 26.109375 -19.171875 C 26.109375 -13.035156 26.535156 -8.804688 27.390625 -6.484375 C 28.253906 -4.171875 29.84375 -2.664062 32.15625 -1.96875 L 32.15625 0 L 7.703125 0 L 7.703125 -1.96875 C 10.015625 -2.664062 11.597656 -4.171875 12.453125 -6.484375 C 13.304688 -8.804688 13.734375 -13.035156 13.734375 -19.171875 L 13.734375 -86.5 C 13.734375 -92.738281 13.304688 -96.988281 12.453125 -99.25 C 11.597656 -101.507812 10.015625 -102.992188 7.703125 -103.703125 L 7.703125 -105.671875 L 37.4375 -105.671875 C 47.695312 -105.671875 55.695312 -104.640625 61.4375 -102.578125 C 67.175781 -100.515625 71.226562 -97.71875 73.59375 -94.1875 C 75.957031 -90.664062 77.140625 -86.644531 77.140625 -82.125 C 77.140625 -75.070312 74.625 -69.054688 69.59375 -64.078125 C 64.5625 -59.097656 57.113281 -56.054688 47.25 -54.953125 C 51.875 -54.347656 55.644531 -53.3125 58.5625 -51.84375 C 61.488281 -50.382812 63.90625 -48.421875 65.8125 -45.953125 C 67.726562 -43.492188 69.441406 -40.503906 70.953125 -36.984375 C 72.460938 -33.460938 74.117188 -29.382812 75.921875 -24.75 C 78.335938 -18.71875 80.375 -14.039062 82.03125 -10.71875 C 83.695312 -7.394531 85.234375 -5.050781 86.640625 -3.6875 C 88.054688 -2.332031 89.617188 -1.65625 91.328125 -1.65625 C 91.828125 -1.65625 92.253906 -1.65625 92.609375 -1.65625 C 92.960938 -1.65625 93.335938 -1.707031 93.734375 -1.8125 L 93.734375 0 C 92.628906 0.40625 91.195312 0.679688 89.4375 0.828125 C 87.675781 0.984375 86.039062 1.0625 84.53125 1.0625 Z M 26.109375 -56.765625 L 38.796875 -56.765625 C 47.453125 -56.765625 53.867188 -58.800781 58.046875 -62.875 C 62.222656 -66.945312 64.3125 -72.203125 64.3125 -78.640625 C 64.3125 -83.171875 63.273438 -87.296875 61.203125 -91.015625 C 59.140625 -94.742188 55.816406 -97.738281 51.234375 -100 C 46.660156 -102.269531 40.648438 -103.40625 33.203125 -103.40625 C 32.097656 -103.40625 30.941406 -103.378906 29.734375 -103.328125 C 28.523438 -103.273438 27.316406 -103.195312 26.109375 -103.09375 Z M 26.109375 -56.765625 "/></g></g></g><g fill="#ffffff" fill-opacity="1"><g transform="translate(1158.036058, 735.357937)"><g><path d="M 84.53125 1.0625 C 80.707031 1.0625 77.6875 0.128906 75.46875 -1.734375 C 73.257812 -3.597656 71.320312 -6.316406 69.65625 -9.890625 C 68 -13.460938 66.066406 -17.863281 63.859375 -23.09375 C 61.640625 -28.332031 59.773438 -32.910156 58.265625 -36.828125 C 56.753906 -40.753906 55.117188 -44.023438 53.359375 -46.640625 C 51.597656 -49.253906 49.359375 -51.21875 46.640625 -52.53125 C 43.921875 -53.84375 40.300781 -54.5 35.78125 -54.5 L 26.109375 -54.5 L 26.109375 -19.171875 C 26.109375 -13.035156 26.535156 -8.804688 27.390625 -6.484375 C 28.253906 -4.171875 29.84375 -2.664062 32.15625 -1.96875 L 32.15625 0 L 7.703125 0 L 7.703125 -1.96875 C 10.015625 -2.664062 11.597656 -4.171875 12.453125 -6.484375 C 13.304688 -8.804688 13.734375 -13.035156 13.734375 -19.171875 L 13.734375 -86.5 C 13.734375 -92.738281 13.304688 -96.988281 12.453125 -99.25 C 11.597656 -101.507812 10.015625 -102.992188 7.703125 -103.703125 L 7.703125 -105.671875 L 37.4375 -105.671875 C 47.695312 -105.671875 55.695312 -104.640625 61.4375 -102.578125 C 67.175781 -100.515625 71.226562 -97.71875 73.59375 -94.1875 C 75.957031 -90.664062 77.140625 -86.644531 77.140625 -82.125 C 77.140625 -75.070312 74.625 -69.054688 69.59375 -64.078125 C 64.5625 -59.097656 57.113281 -56.054688 47.25 -54.953125 C 51.875 -54.347656 55.644531 -53.3125 58.5625 -51.84375 C 61.488281 -50.382812 63.90625 -48.421875 65.8125 -45.953125 C 67.726562 -43.492188 69.441406 -40.503906 70.953125 -36.984375 C 72.460938 -33.460938 74.117188 -29.382812 75.921875 -24.75 C 78.335938 -18.71875 80.375 -14.039062 82.03125 -10.71875 C 83.695312 -7.394531 85.234375 -5.050781 86.640625 -3.6875 C 88.054688 -2.332031 89.617188 -1.65625 91.328125 -1.65625 C 91.828125 -1.65625 92.253906 -1.65625 92.609375 -1.65625 C 92.960938 -1.65625 93.335938 -1.707031 93.734375 -1.8125 L 93.734375 0 C 92.628906 0.40625 91.195312 0.679688 89.4375 0.828125 C 87.675781 0.984375 86.039062 1.0625 84.53125 1.0625 Z M 26.109375 -56.765625 L 38.796875 -56.765625 C 47.453125 -56.765625 53.867188 -58.800781 58.046875 -62.875 C 62.222656 -66.945312 64.3125 -72.203125 64.3125 -78.640625 C 64.3125 -83.171875 63.273438 -87.296875 61.203125 -91.015625 C 59.140625 -94.742188 55.816406 -97.738281 51.234375 -100 C 46.660156 -102.269531 40.648438 -103.40625 33.203125 -103.40625 C 32.097656 -103.40625 30.941406 -103.378906 29.734375 -103.328125 C 28.523438 -103.273438 27.316406 -103.195312 26.109375 -103.09375 Z M 26.109375 -56.765625 "/></g></g></g><g fill="#ffffff" fill-opacity="1"><g transform="translate(1274.087316, 735.357937)"><g><path d="M 28.53125 0 L 28.53125 -1.96875 C 30.84375 -2.664062 32.425781 -4.171875 33.28125 -6.484375 C 34.132812 -8.804688 34.515625 -13.035156 34.421875 -19.171875 L 34.421875 -47.546875 L 11.625 -88.90625 C 8.707031 -94.238281 6.140625 -97.859375 3.921875 -99.765625 C 1.710938 -101.679688 -0.195312 -102.992188 -1.8125 -103.703125 L -1.8125 -105.671875 L 22.046875 -105.671875 L 22.046875 -103.703125 C 19.828125 -102.992188 19.066406 -101.679688 19.765625 -99.765625 C 20.472656 -97.859375 22.335938 -94.238281 25.359375 -88.90625 L 46.34375 -51.46875 L 67.46875 -88.90625 C 70.09375 -93.539062 71.40625 -97.039062 71.40625 -99.40625 C 71.40625 -101.769531 69.941406 -103.203125 67.015625 -103.703125 L 67.015625 -105.671875 L 84.984375 -105.671875 L 84.984375 -103.703125 C 82.972656 -102.992188 80.757812 -101.679688 78.34375 -99.765625 C 75.925781 -97.859375 73.207031 -94.238281 70.1875 -88.90625 L 47.09375 -47.859375 L 47.09375 -19.171875 C 47.09375 -13.035156 47.519531 -8.804688 48.375 -6.484375 C 49.226562 -4.171875 50.816406 -2.664062 53.140625 -1.96875 L 53.140625 0 Z M 28.53125 0 "/></g></g></g><path stroke-linecap="butt" transform="matrix(0.75, 0, 0, 0.75, 371.682919, 806.558526)" fill="none" stroke-linejoin="miter" d="M 0.000899086 2.000091 L 461.948856 2.000091 " stroke="#ffffff" stroke-width="4" stroke-opacity="1" stroke-miterlimit="4"/><g fill="#ffffff" fill-opacity="1"><g transform="translate(754.731879, 826.976878)"><g><path d="M 21.234375 -16.734375 C 20.816406 -16.734375 20.609375 -16.941406 20.609375 -17.359375 C 20.609375 -17.609375 21.003906 -18.191406 21.796875 -19.109375 C 22.585938 -20.023438 23.566406 -21.109375 24.734375 -22.359375 C 25.898438 -23.609375 26.984375 -24.816406 27.984375 -25.984375 C 30.640625 -28.898438 32.988281 -31.082031 35.03125 -32.53125 C 37.070312 -33.988281 38.96875 -34.71875 40.71875 -34.71875 C 42.300781 -34.71875 43.507812 -34.113281 44.34375 -32.90625 C 45.175781 -31.707031 45.59375 -30.359375 45.59375 -28.859375 C 45.59375 -27.191406 45.113281 -25.253906 44.15625 -23.046875 C 43.195312 -20.835938 42.09375 -18.734375 40.84375 -16.734375 C 39.59375 -14.734375 38.550781 -13.148438 37.71875 -11.984375 L 37.96875 -11.734375 C 41.300781 -15.648438 44.300781 -18.753906 46.96875 -21.046875 C 49.632812 -23.335938 51.257812 -25.316406 51.84375 -26.984375 C 52.5 -28.816406 53.492188 -30.5625 54.828125 -32.21875 C 56.160156 -33.882812 57.910156 -34.71875 60.078125 -34.71875 C 62.078125 -34.71875 63.078125 -34.050781 63.078125 -32.71875 C 63.078125 -31.476562 62.367188 -30.296875 60.953125 -29.171875 C 59.535156 -28.046875 57.910156 -26.835938 56.078125 -25.546875 C 54.242188 -24.253906 52.617188 -22.796875 51.203125 -21.171875 C 49.796875 -19.546875 49.09375 -17.648438 49.09375 -15.484375 C 49.09375 -14.234375 49.507812 -13.210938 50.34375 -12.421875 C 51.175781 -11.628906 52.128906 -11.234375 53.203125 -11.234375 C 55.285156 -11.234375 57.160156 -12.066406 58.828125 -13.734375 C 60.242188 -15.148438 61.242188 -16.296875 61.828125 -17.171875 C 62.410156 -18.046875 62.828125 -18.484375 63.078125 -18.484375 C 63.578125 -18.484375 63.828125 -18.273438 63.828125 -17.859375 C 63.828125 -17.691406 63.453125 -17.148438 62.703125 -16.234375 C 61.953125 -15.316406 61.285156 -14.523438 60.703125 -13.859375 C 59.453125 -12.441406 58.160156 -11.441406 56.828125 -10.859375 C 55.492188 -10.285156 54.242188 -10 53.078125 -10 C 51.753906 -10 50.507812 -10.429688 49.34375 -11.296875 C 48.175781 -12.171875 47.59375 -13.359375 47.59375 -14.859375 C 47.59375 -16.273438 47.800781 -17.546875 48.21875 -18.671875 C 48.632812 -19.796875 49.257812 -20.859375 50.09375 -21.859375 L 49.84375 -22.109375 C 46.59375 -19.109375 43.425781 -15.816406 40.34375 -12.234375 C 37.257812 -8.660156 34.140625 -4.832031 30.984375 -0.75 L 23.109375 0 C 27.359375 -6.832031 30.894531 -12.347656 33.71875 -16.546875 C 36.550781 -20.753906 38.695312 -24.023438 40.15625 -26.359375 C 41.613281 -28.691406 42.34375 -30.394531 42.34375 -31.46875 C 42.34375 -32.632812 41.632812 -33.21875 40.21875 -33.21875 C 39.382812 -33.21875 38.175781 -32.78125 36.59375 -31.90625 C 35.007812 -31.039062 32.972656 -29.316406 30.484375 -26.734375 C 27.984375 -24.148438 26.085938 -22.128906 24.796875 -20.671875 C 23.503906 -19.210938 22.628906 -18.191406 22.171875 -17.609375 C 21.710938 -17.023438 21.398438 -16.734375 21.234375 -16.734375 Z M 21.234375 -16.734375 "/></g></g></g><g fill="#ffffff" fill-opacity="1"><g transform="translate(796.323393, 826.976878)"><g><path d="M 53.203125 -28.734375 C 53.203125 -26.398438 52.222656 -24.296875 50.265625 -22.421875 C 48.316406 -20.546875 45.925781 -18.921875 43.09375 -17.546875 C 40.257812 -16.171875 37.40625 -15.046875 34.53125 -14.171875 C 31.664062 -13.296875 29.316406 -12.648438 27.484375 -12.234375 C 27.398438 -11.566406 27.296875 -10.878906 27.171875 -10.171875 C 27.046875 -9.472656 26.984375 -8.789062 26.984375 -8.125 C 26.984375 -5.707031 27.378906 -4.019531 28.171875 -3.0625 C 28.960938 -2.101562 30.3125 -1.582031 32.21875 -1.5 C 33.882812 -1.414062 36.257812 -2.101562 39.34375 -3.5625 C 42.425781 -5.019531 45.882812 -7.617188 49.71875 -11.359375 C 52.125 -13.859375 53.765625 -15.691406 54.640625 -16.859375 C 55.515625 -18.023438 56.078125 -18.609375 56.328125 -18.609375 C 56.742188 -18.609375 56.953125 -18.359375 56.953125 -17.859375 C 56.953125 -17.691406 56.492188 -17.046875 55.578125 -15.921875 C 54.660156 -14.796875 53.535156 -13.523438 52.203125 -12.109375 C 50.878906 -10.703125 49.59375 -9.414062 48.34375 -8.25 C 45.257812 -5.414062 42.382812 -3.351562 39.71875 -2.0625 C 37.050781 -0.769531 34.257812 -0.0820312 31.34375 0 C 29.101562 0 27.253906 -0.644531 25.796875 -1.9375 C 24.335938 -3.226562 23.253906 -4.894531 22.546875 -6.9375 C 21.835938 -8.976562 21.484375 -11.078125 21.484375 -13.234375 C 21.484375 -14.148438 21.546875 -14.941406 21.671875 -15.609375 C 21.796875 -16.273438 21.859375 -16.691406 21.859375 -16.859375 C 21.859375 -17.023438 21.835938 -17.109375 21.796875 -17.109375 C 21.753906 -17.109375 21.734375 -17.109375 21.734375 -17.109375 C 21.484375 -16.859375 21.359375 -16.734375 21.359375 -16.734375 C 21.273438 -16.734375 21.148438 -16.835938 20.984375 -17.046875 C 20.816406 -17.253906 20.734375 -17.398438 20.734375 -17.484375 C 20.734375 -17.648438 21.046875 -18.109375 21.671875 -18.859375 C 22.296875 -19.609375 22.984375 -20.378906 23.734375 -21.171875 C 24.484375 -21.960938 25.023438 -22.523438 25.359375 -22.859375 C 28.773438 -26.359375 32.394531 -29.207031 36.21875 -31.40625 C 40.050781 -33.613281 43.632812 -34.71875 46.96875 -34.71875 C 48.882812 -34.71875 50.398438 -34.15625 51.515625 -33.03125 C 52.640625 -31.90625 53.203125 -30.472656 53.203125 -28.734375 Z M 46.96875 -33.21875 C 45.300781 -33.21875 43.46875 -32.550781 41.46875 -31.21875 C 39.46875 -29.894531 37.53125 -28.191406 35.65625 -26.109375 C 33.78125 -24.023438 32.132812 -21.878906 30.71875 -19.671875 C 29.3125 -17.460938 28.398438 -15.484375 27.984375 -13.734375 C 30.066406 -13.984375 32.332031 -14.585938 34.78125 -15.546875 C 37.238281 -16.503906 39.59375 -17.753906 41.84375 -19.296875 C 44.09375 -20.835938 45.925781 -22.585938 47.34375 -24.546875 C 48.757812 -26.503906 49.46875 -28.609375 49.46875 -30.859375 C 49.46875 -32.429688 48.632812 -33.21875 46.96875 -33.21875 Z M 46.96875 -33.21875 "/></g></g></g><g fill="#ffffff" fill-opacity="1"><g transform="translate(831.045406, 826.976878)"><g><path d="M 29.234375 0 C 27.148438 0 25.523438 -0.5625 24.359375 -1.6875 C 23.191406 -2.8125 22.398438 -4.25 21.984375 -6 C 21.566406 -7.75 21.359375 -9.535156 21.359375 -11.359375 C 21.359375 -12.359375 21.421875 -13.335938 21.546875 -14.296875 C 21.671875 -15.253906 21.816406 -16.234375 21.984375 -17.234375 C 21.898438 -17.234375 21.796875 -17.171875 21.671875 -17.046875 C 21.546875 -16.921875 21.398438 -16.859375 21.234375 -16.859375 C 20.898438 -16.859375 20.734375 -17.066406 20.734375 -17.484375 C 20.734375 -17.734375 20.859375 -17.984375 21.109375 -18.234375 C 21.359375 -18.484375 21.898438 -19.109375 22.734375 -20.109375 C 26.148438 -24.273438 30.164062 -27.75 34.78125 -30.53125 C 39.40625 -33.320312 43.882812 -34.71875 48.21875 -34.71875 C 50.132812 -34.71875 51.503906 -34.113281 52.328125 -32.90625 C 53.160156 -31.707031 53.578125 -30.273438 53.578125 -28.609375 C 53.578125 -27.109375 53.453125 -25.984375 53.203125 -25.234375 L 53.453125 -24.984375 C 54.953125 -27.398438 56.035156 -29.226562 56.703125 -30.46875 C 57.367188 -31.71875 57.929688 -32.59375 58.390625 -33.09375 C 58.847656 -33.59375 59.492188 -33.84375 60.328125 -33.84375 L 66.328125 -34.09375 C 65.660156 -33.257812 64.617188 -31.800781 63.203125 -29.71875 C 61.785156 -27.644531 60.222656 -25.296875 58.515625 -22.671875 C 56.804688 -20.046875 55.179688 -17.398438 53.640625 -14.734375 C 52.109375 -12.066406 50.84375 -9.710938 49.84375 -7.671875 C 48.84375 -5.640625 48.34375 -4.164062 48.34375 -3.25 C 48.34375 -2.082031 49.050781 -1.5 50.46875 -1.5 C 52.375 -1.5 54.910156 -2.9375 58.078125 -5.8125 C 61.242188 -8.6875 64.617188 -12.242188 68.203125 -16.484375 C 68.953125 -17.398438 69.429688 -17.960938 69.640625 -18.171875 C 69.847656 -18.378906 69.992188 -18.484375 70.078125 -18.484375 C 70.578125 -18.484375 70.828125 -18.234375 70.828125 -17.734375 C 70.828125 -17.648438 70.453125 -17.171875 69.703125 -16.296875 C 68.953125 -15.421875 68.054688 -14.398438 67.015625 -13.234375 C 65.972656 -12.066406 64.953125 -10.945312 63.953125 -9.875 C 61.117188 -6.875 58.515625 -4.476562 56.140625 -2.6875 C 53.765625 -0.894531 51.75 0 50.09375 0 C 48.425781 0 47.09375 -0.582031 46.09375 -1.75 C 45.09375 -2.914062 44.59375 -5.207031 44.59375 -8.625 C 44.59375 -9.039062 44.613281 -9.4375 44.65625 -9.8125 C 44.695312 -10.1875 44.71875 -10.535156 44.71875 -10.859375 C 43.46875 -9.617188 41.925781 -8.144531 40.09375 -6.4375 C 38.257812 -4.726562 36.382812 -3.226562 34.46875 -1.9375 C 32.550781 -0.644531 30.804688 0 29.234375 0 Z M 26.359375 -5.5 C 26.359375 -4.332031 26.585938 -3.375 27.046875 -2.625 C 27.503906 -1.875 28.234375 -1.5 29.234375 -1.5 C 30.640625 -1.5 32.34375 -2.125 34.34375 -3.375 C 36.34375 -4.625 38.363281 -6.285156 40.40625 -8.359375 C 42.445312 -10.441406 44.363281 -12.710938 46.15625 -15.171875 C 47.945312 -17.628906 49.378906 -20.046875 50.453125 -22.421875 C 51.535156 -24.796875 52.078125 -26.898438 52.078125 -28.734375 C 52.078125 -29.984375 51.765625 -31.039062 51.140625 -31.90625 C 50.523438 -32.78125 49.550781 -33.21875 48.21875 -33.21875 C 45.71875 -33.21875 43.175781 -32.21875 40.59375 -30.21875 C 38.007812 -28.226562 35.632812 -25.734375 33.46875 -22.734375 C 31.3125 -19.734375 29.585938 -16.671875 28.296875 -13.546875 C 27.003906 -10.429688 26.359375 -7.75 26.359375 -5.5 Z M 26.359375 -5.5 "/></g></g></g><g fill="#ffffff" fill-opacity="1"><g transform="translate(879.631279, 826.976878)"><g><path d="M 60.578125 -74.3125 L 68.828125 -75.1875 C 60.742188 -62.363281 53.929688 -51.644531 48.390625 -43.03125 C 42.859375 -34.414062 38.445312 -27.421875 35.15625 -22.046875 C 31.875 -16.671875 29.503906 -12.523438 28.046875 -9.609375 C 26.585938 -6.703125 25.859375 -4.539062 25.859375 -3.125 C 25.859375 -2.789062 26.046875 -2.4375 26.421875 -2.0625 C 26.796875 -1.6875 27.273438 -1.5 27.859375 -1.5 C 29.773438 -1.5 31.894531 -2.3125 34.21875 -3.9375 C 36.550781 -5.5625 39.257812 -7.910156 42.34375 -10.984375 C 45.175781 -13.898438 46.988281 -15.898438 47.78125 -16.984375 C 48.570312 -18.066406 49.132812 -18.609375 49.46875 -18.609375 C 49.882812 -18.609375 50.09375 -18.398438 50.09375 -17.984375 C 50.09375 -17.816406 49.53125 -17.066406 48.40625 -15.734375 C 47.28125 -14.398438 46.257812 -13.273438 45.34375 -12.359375 C 41.757812 -8.535156 38.488281 -5.519531 35.53125 -3.3125 C 32.582031 -1.101562 29.898438 0 27.484375 0 C 25.398438 0 23.984375 -0.644531 23.234375 -1.9375 C 22.484375 -3.226562 22.109375 -4.664062 22.109375 -6.25 C 22.109375 -8.75 22.566406 -11.015625 23.484375 -13.046875 C 24.398438 -15.085938 25.816406 -17.484375 27.734375 -20.234375 C 29.648438 -22.984375 32.019531 -26.726562 34.84375 -31.46875 L 34.59375 -31.71875 C 33.507812 -30.476562 32.382812 -29.148438 31.21875 -27.734375 C 30.0625 -26.316406 28.441406 -24.484375 26.359375 -22.234375 C 24.023438 -19.648438 22.546875 -17.984375 21.921875 -17.234375 C 21.296875 -16.484375 20.816406 -16.109375 20.484375 -16.109375 C 20.148438 -16.109375 19.984375 -16.316406 19.984375 -16.734375 C 19.984375 -16.984375 20.753906 -17.941406 22.296875 -19.609375 C 23.835938 -21.273438 25.851562 -23.546875 28.34375 -26.421875 C 30.84375 -29.296875 33.59375 -32.707031 36.59375 -36.65625 C 39.59375 -40.613281 42.59375 -45.007812 45.59375 -49.84375 Z M 60.578125 -74.3125 "/></g></g></g><g fill="#ffffff" fill-opacity="1"><g transform="translate(907.358933, 826.976878)"><g/></g></g><g fill="#ffffff" fill-opacity="1"><g transform="translate(931.589407, 826.976878)"><g><path d="M 54.328125 -28.609375 C 54.328125 -27.441406 53.910156 -26.253906 53.078125 -25.046875 C 52.253906 -23.835938 51.132812 -23.234375 49.71875 -23.234375 C 48.632812 -23.234375 47.84375 -23.546875 47.34375 -24.171875 C 46.84375 -24.796875 46.59375 -25.523438 46.59375 -26.359375 C 46.59375 -27.441406 46.90625 -28.148438 47.53125 -28.484375 C 48.15625 -28.816406 48.78125 -29.109375 49.40625 -29.359375 C 50.03125 -29.609375 50.34375 -30.191406 50.34375 -31.109375 C 50.34375 -31.597656 50.113281 -32.070312 49.65625 -32.53125 C 49.195312 -32.988281 48.46875 -33.21875 47.46875 -33.21875 C 45.632812 -33.21875 43.570312 -32.488281 41.28125 -31.03125 C 38.988281 -29.582031 36.800781 -27.609375 34.71875 -25.109375 C 32.632812 -22.609375 30.925781 -19.753906 29.59375 -16.546875 C 28.269531 -13.335938 27.609375 -9.945312 27.609375 -6.375 C 27.609375 -3.125 29.351562 -1.5 32.84375 -1.5 C 35.007812 -1.5 37.53125 -2.289062 40.40625 -3.875 C 43.28125 -5.457031 46.09375 -7.660156 48.84375 -10.484375 C 51.082031 -12.816406 52.703125 -14.566406 53.703125 -15.734375 C 54.703125 -16.898438 55.347656 -17.671875 55.640625 -18.046875 C 55.929688 -18.421875 56.117188 -18.609375 56.203125 -18.609375 C 56.703125 -18.609375 56.953125 -18.359375 56.953125 -17.859375 C 56.953125 -17.691406 56.472656 -17.046875 55.515625 -15.921875 C 54.554688 -14.796875 53.410156 -13.523438 52.078125 -12.109375 C 48.171875 -7.785156 44.632812 -4.6875 41.46875 -2.8125 C 38.300781 -0.9375 35.132812 0 31.96875 0 C 29.394531 0 27.398438 -0.726562 25.984375 -2.1875 C 24.566406 -3.644531 23.566406 -5.429688 22.984375 -7.546875 C 22.398438 -9.671875 22.109375 -11.734375 22.109375 -13.734375 C 22.109375 -14.734375 22.171875 -15.503906 22.296875 -16.046875 C 22.421875 -16.585938 22.484375 -16.941406 22.484375 -17.109375 C 22.484375 -17.273438 22.398438 -17.359375 22.234375 -17.359375 C 22.066406 -17.359375 21.921875 -17.273438 21.796875 -17.109375 C 21.671875 -16.941406 21.523438 -16.859375 21.359375 -16.859375 C 20.941406 -16.859375 20.734375 -17.066406 20.734375 -17.484375 C 20.734375 -17.648438 20.941406 -18.003906 21.359375 -18.546875 C 21.773438 -19.085938 22.984375 -20.523438 24.984375 -22.859375 C 28.566406 -27.023438 32.125 -30.039062 35.65625 -31.90625 C 39.195312 -33.78125 42.71875 -34.71875 46.21875 -34.71875 C 48.632812 -34.71875 50.585938 -34.195312 52.078125 -33.15625 C 53.578125 -32.113281 54.328125 -30.597656 54.328125 -28.609375 Z M 54.328125 -28.609375 "/></g></g></g><g fill="#ffffff" fill-opacity="1"><g transform="translate(966.311421, 826.976878)"><g><path d="M 55.453125 -26.109375 C 55.453125 -23.523438 54.703125 -20.753906 53.203125 -17.796875 C 51.710938 -14.835938 50.007812 -12.398438 48.09375 -10.484375 C 48.425781 -10.328125 48.882812 -10.25 49.46875 -10.25 C 51.625 -10.25 53.703125 -10.804688 55.703125 -11.921875 C 57.703125 -13.046875 59.492188 -14.523438 61.078125 -16.359375 C 61.910156 -17.273438 62.429688 -17.859375 62.640625 -18.109375 C 62.847656 -18.359375 63.035156 -18.484375 63.203125 -18.484375 C 63.617188 -18.484375 63.828125 -18.273438 63.828125 -17.859375 C 63.828125 -17.773438 63.660156 -17.503906 63.328125 -17.046875 C 62.992188 -16.585938 62.117188 -15.609375 60.703125 -14.109375 C 59.117188 -12.523438 57.265625 -11.234375 55.140625 -10.234375 C 53.023438 -9.242188 50.757812 -8.75 48.34375 -8.75 C 47.507812 -8.75 46.96875 -8.789062 46.71875 -8.875 C 44.800781 -6.707031 42.53125 -4.6875 39.90625 -2.8125 C 37.28125 -0.9375 34.222656 0 30.734375 0 C 28.234375 0 26.316406 -1.019531 24.984375 -3.0625 C 23.648438 -5.101562 22.984375 -7.785156 22.984375 -11.109375 C 22.984375 -13.359375 23.085938 -14.921875 23.296875 -15.796875 C 23.503906 -16.671875 23.609375 -17.273438 23.609375 -17.609375 C 23.609375 -18.109375 23.484375 -18.359375 23.234375 -18.359375 C 22.734375 -18.359375 22.273438 -18.023438 21.859375 -17.359375 C 21.441406 -16.691406 21.148438 -16.359375 20.984375 -16.359375 C 20.484375 -16.359375 20.234375 -16.566406 20.234375 -16.984375 C 20.234375 -17.234375 20.628906 -17.796875 21.421875 -18.671875 C 22.210938 -19.546875 23.171875 -20.566406 24.296875 -21.734375 C 25.421875 -22.898438 26.484375 -23.941406 27.484375 -24.859375 C 31.140625 -28.273438 34.757812 -30.769531 38.34375 -32.34375 C 41.925781 -33.925781 45.132812 -34.71875 47.96875 -34.71875 C 50.382812 -34.71875 52.234375 -33.90625 53.515625 -32.28125 C 54.804688 -30.664062 55.453125 -28.609375 55.453125 -26.109375 Z M 52.703125 -27.609375 C 52.703125 -29.109375 52.367188 -30.414062 51.703125 -31.53125 C 51.046875 -32.65625 49.925781 -33.21875 48.34375 -33.21875 C 46.175781 -33.21875 43.90625 -32.320312 41.53125 -30.53125 C 39.15625 -28.75 36.945312 -26.441406 34.90625 -23.609375 C 32.863281 -20.773438 31.195312 -17.816406 29.90625 -14.734375 C 28.625 -11.660156 27.984375 -8.789062 27.984375 -6.125 C 27.984375 -4.375 28.316406 -3.164062 28.984375 -2.5 C 29.648438 -1.832031 30.398438 -1.5 31.234375 -1.5 C 33.722656 -1.5 36.21875 -2.3125 38.71875 -3.9375 C 41.21875 -5.5625 43.53125 -7.679688 45.65625 -10.296875 C 47.78125 -12.921875 49.484375 -15.753906 50.765625 -18.796875 C 52.054688 -21.835938 52.703125 -24.773438 52.703125 -27.609375 Z M 52.703125 -27.609375 "/></g></g></g><g fill="#ffffff" fill-opacity="1"><g transform="translate(1007.902934, 826.976878)"><g><path d="M 53.203125 -0.75 L 45.34375 0 C 45.84375 -0.914062 46.757812 -2.4375 48.09375 -4.5625 C 49.425781 -6.6875 50.941406 -9.078125 52.640625 -11.734375 C 54.347656 -14.398438 56.015625 -17.066406 57.640625 -19.734375 C 59.265625 -22.398438 60.597656 -24.796875 61.640625 -26.921875 C 62.679688 -29.046875 63.203125 -30.519531 63.203125 -31.34375 C 63.203125 -32.507812 62.660156 -33.132812 61.578125 -33.21875 C 60.492188 -33.382812 58.910156 -32.550781 56.828125 -30.71875 C 54.742188 -28.894531 52.410156 -26.546875 49.828125 -23.671875 C 47.253906 -20.796875 44.71875 -17.796875 42.21875 -14.671875 C 39.71875 -11.554688 37.507812 -8.726562 35.59375 -6.1875 C 33.675781 -3.644531 32.34375 -1.832031 31.59375 -0.75 L 23.484375 0 C 29.554688 -9.65625 34.257812 -17.066406 37.59375 -22.234375 C 40.925781 -27.398438 42.59375 -30.476562 42.59375 -31.46875 C 42.59375 -32.632812 41.96875 -33.21875 40.71875 -33.21875 C 38.96875 -33.21875 37.070312 -32.40625 35.03125 -30.78125 C 32.988281 -29.164062 30.929688 -27.273438 28.859375 -25.109375 C 25.941406 -22.023438 24.003906 -19.859375 23.046875 -18.609375 C 22.085938 -17.359375 21.484375 -16.734375 21.234375 -16.734375 C 20.816406 -16.734375 20.609375 -16.984375 20.609375 -17.484375 C 20.609375 -17.648438 21.253906 -18.484375 22.546875 -19.984375 C 23.835938 -21.484375 25.648438 -23.523438 27.984375 -26.109375 C 30.890625 -29.359375 33.382812 -31.601562 35.46875 -32.84375 C 37.550781 -34.09375 39.34375 -34.71875 40.84375 -34.71875 C 44.175781 -34.71875 45.84375 -33.140625 45.84375 -29.984375 C 45.84375 -28.148438 45.425781 -26.210938 44.59375 -24.171875 C 43.757812 -22.128906 42.78125 -20.148438 41.65625 -18.234375 C 40.53125 -16.316406 39.550781 -14.609375 38.71875 -13.109375 L 38.96875 -12.859375 C 40.050781 -14.023438 41.550781 -15.796875 43.46875 -18.171875 C 45.382812 -20.546875 47.460938 -23.003906 49.703125 -25.546875 C 51.953125 -28.085938 54.179688 -30.25 56.390625 -32.03125 C 58.597656 -33.820312 60.535156 -34.71875 62.203125 -34.71875 C 65.035156 -34.71875 66.453125 -32.847656 66.453125 -29.109375 C 66.453125 -26.359375 65.722656 -23.566406 64.265625 -20.734375 C 62.804688 -17.898438 61.492188 -15.441406 60.328125 -13.359375 L 60.578125 -13.109375 C 61.660156 -14.359375 63.179688 -16.171875 65.140625 -18.546875 C 67.097656 -20.921875 69.21875 -23.335938 71.5 -25.796875 C 73.789062 -28.253906 76.082031 -30.351562 78.375 -32.09375 C 80.664062 -33.84375 82.6875 -34.71875 84.4375 -34.71875 C 85.601562 -34.71875 86.625 -34.21875 87.5 -33.21875 C 88.375 -32.21875 88.8125 -30.597656 88.8125 -28.359375 C 88.8125 -26.359375 88.207031 -24.273438 87 -22.109375 C 85.789062 -19.941406 84.351562 -17.796875 82.6875 -15.671875 C 81.019531 -13.546875 79.539062 -11.503906 78.25 -9.546875 C 76.957031 -7.597656 76.226562 -5.832031 76.0625 -4.25 C 75.976562 -3.582031 76.125 -2.957031 76.5 -2.375 C 76.875 -1.789062 77.394531 -1.5 78.0625 -1.5 C 79.226562 -1.5 80.832031 -2.25 82.875 -3.75 C 84.914062 -5.25 87.101562 -7.164062 89.4375 -9.5 C 92.269531 -12.488281 94.222656 -14.609375 95.296875 -15.859375 C 96.378906 -17.109375 97.046875 -17.859375 97.296875 -18.109375 C 97.546875 -18.359375 97.753906 -18.484375 97.921875 -18.484375 C 98.335938 -18.484375 98.546875 -18.273438 98.546875 -17.859375 C 98.546875 -17.523438 97.773438 -16.503906 96.234375 -14.796875 C 94.691406 -13.085938 93.09375 -11.40625 91.4375 -9.75 C 88.351562 -6.5 85.726562 -4.0625 83.5625 -2.4375 C 81.394531 -0.8125 79.4375 0 77.6875 0 C 75.851562 0 74.5 -0.75 73.625 -2.25 C 72.757812 -3.75 72.328125 -5.664062 72.328125 -8 C 72.328125 -10.65625 72.988281 -13.171875 74.3125 -15.546875 C 75.644531 -17.921875 77.1875 -20.148438 78.9375 -22.234375 C 80.6875 -24.316406 82.226562 -26.191406 83.5625 -27.859375 C 84.894531 -29.523438 85.5625 -30.9375 85.5625 -32.09375 C 85.5625 -32.84375 85.019531 -33.21875 83.9375 -33.21875 C 82.519531 -33.21875 80.664062 -32.28125 78.375 -30.40625 C 76.082031 -28.539062 73.625 -26.171875 71 -23.296875 C 68.382812 -20.421875 65.847656 -17.441406 63.390625 -14.359375 C 60.929688 -11.285156 58.785156 -8.5 56.953125 -6 C 55.117188 -3.5 53.867188 -1.75 53.203125 -0.75 Z M 53.203125 -0.75 "/></g></g></g><g fill="#ffffff" fill-opacity="1"><g transform="translate(1084.216462, 826.976878)"><g><path d="M 41.84375 -32.21875 L 26.984375 -2.5 C 29.648438 -2.664062 32.519531 -3.726562 35.59375 -5.6875 C 38.675781 -7.644531 41.96875 -10.535156 45.46875 -14.359375 C 47.132812 -16.109375 48.113281 -17.234375 48.40625 -17.734375 C 48.695312 -18.234375 49.007812 -18.484375 49.34375 -18.484375 C 49.757812 -18.484375 49.96875 -18.273438 49.96875 -17.859375 C 49.96875 -17.691406 49.632812 -17.191406 48.96875 -16.359375 C 48.300781 -15.523438 47.488281 -14.585938 46.53125 -13.546875 C 45.570312 -12.503906 44.632812 -11.523438 43.71875 -10.609375 C 41.132812 -7.953125 38.320312 -5.707031 35.28125 -3.875 C 32.25 -2.039062 29.148438 -0.875 25.984375 -0.375 L 8.125 32.96875 L 0.5 33.96875 L 19.859375 -1.25 C 19.273438 -1.664062 18.878906 -2.207031 18.671875 -2.875 C 18.460938 -3.539062 18.359375 -4.207031 18.359375 -4.875 C 18.359375 -6.039062 18.691406 -6.976562 19.359375 -7.6875 C 20.023438 -8.394531 20.859375 -8.75 21.859375 -8.75 C 22.609375 -8.75 23.148438 -8.625 23.484375 -8.375 L 37.84375 -33.96875 L 37.59375 -34.21875 C 35.09375 -32.0625 33.132812 -30.148438 31.71875 -28.484375 C 30.3125 -26.816406 28.773438 -25.109375 27.109375 -23.359375 C 25.273438 -21.359375 23.898438 -19.753906 22.984375 -18.546875 C 22.066406 -17.335938 21.484375 -16.734375 21.234375 -16.734375 C 20.816406 -16.734375 20.609375 -16.941406 20.609375 -17.359375 C 20.609375 -17.523438 21.316406 -18.460938 22.734375 -20.171875 C 24.148438 -21.878906 26.859375 -24.898438 30.859375 -29.234375 C 33.097656 -31.722656 34.90625 -33.570312 36.28125 -34.78125 C 37.65625 -35.988281 38.78125 -37.03125 39.65625 -37.90625 C 40.53125 -38.78125 41.34375 -39.925781 42.09375 -41.34375 C 43.175781 -43.425781 44.632812 -46.023438 46.46875 -49.140625 C 48.300781 -52.265625 50.359375 -55.535156 52.640625 -58.953125 C 54.929688 -62.367188 57.347656 -65.59375 59.890625 -68.625 C 62.429688 -71.664062 65.035156 -74.144531 67.703125 -76.0625 C 70.367188 -77.976562 72.945312 -78.9375 75.4375 -78.9375 C 77.101562 -78.9375 78.289062 -78.4375 79 -77.4375 C 79.707031 -76.4375 80.0625 -75.019531 80.0625 -73.1875 C 80.0625 -70.195312 79.019531 -67.117188 76.9375 -63.953125 C 74.851562 -60.785156 72.019531 -57.535156 68.4375 -54.203125 C 64.863281 -50.878906 60.785156 -47.382812 56.203125 -43.71875 C 51.628906 -40.050781 46.84375 -36.21875 41.84375 -32.21875 Z M 43.09375 -35.34375 L 43.34375 -35.09375 C 45.257812 -36.757812 47.671875 -38.738281 50.578125 -41.03125 C 53.492188 -43.320312 56.535156 -45.816406 59.703125 -48.515625 C 62.867188 -51.222656 65.847656 -54.054688 68.640625 -57.015625 C 71.429688 -59.972656 73.695312 -62.929688 75.4375 -65.890625 C 77.1875 -68.847656 78.0625 -71.738281 78.0625 -74.5625 C 78.0625 -76.476562 76.894531 -77.4375 74.5625 -77.4375 C 72.070312 -77.4375 69.515625 -76.207031 66.890625 -73.75 C 64.265625 -71.300781 61.617188 -68.035156 58.953125 -63.953125 C 56.285156 -59.867188 53.617188 -55.328125 50.953125 -50.328125 C 48.296875 -45.335938 45.675781 -40.34375 43.09375 -35.34375 Z M 43.09375 -35.34375 "/></g></g></g><g fill="#ffffff" fill-opacity="1"><g transform="translate(1111.944116, 826.976878)"><g><path d="M 55.453125 -26.109375 C 55.453125 -23.523438 54.703125 -20.753906 53.203125 -17.796875 C 51.710938 -14.835938 50.007812 -12.398438 48.09375 -10.484375 C 48.425781 -10.328125 48.882812 -10.25 49.46875 -10.25 C 51.625 -10.25 53.703125 -10.804688 55.703125 -11.921875 C 57.703125 -13.046875 59.492188 -14.523438 61.078125 -16.359375 C 61.910156 -17.273438 62.429688 -17.859375 62.640625 -18.109375 C 62.847656 -18.359375 63.035156 -18.484375 63.203125 -18.484375 C 63.617188 -18.484375 63.828125 -18.273438 63.828125 -17.859375 C 63.828125 -17.773438 63.660156 -17.503906 63.328125 -17.046875 C 62.992188 -16.585938 62.117188 -15.609375 60.703125 -14.109375 C 59.117188 -12.523438 57.265625 -11.234375 55.140625 -10.234375 C 53.023438 -9.242188 50.757812 -8.75 48.34375 -8.75 C 47.507812 -8.75 46.96875 -8.789062 46.71875 -8.875 C 44.800781 -6.707031 42.53125 -4.6875 39.90625 -2.8125 C 37.28125 -0.9375 34.222656 0 30.734375 0 C 28.234375 0 26.316406 -1.019531 24.984375 -3.0625 C 23.648438 -5.101562 22.984375 -7.785156 22.984375 -11.109375 C 22.984375 -13.359375 23.085938 -14.921875 23.296875 -15.796875 C 23.503906 -16.671875 23.609375 -17.273438 23.609375 -17.609375 C 23.609375 -18.109375 23.484375 -18.359375 23.234375 -18.359375 C 22.734375 -18.359375 22.273438 -18.023438 21.859375 -17.359375 C 21.441406 -16.691406 21.148438 -16.359375 20.984375 -16.359375 C 20.484375 -16.359375 20.234375 -16.566406 20.234375 -16.984375 C 20.234375 -17.234375 20.628906 -17.796875 21.421875 -18.671875 C 22.210938 -19.546875 23.171875 -20.566406 24.296875 -21.734375 C 25.421875 -22.898438 26.484375 -23.941406 27.484375 -24.859375 C 31.140625 -28.273438 34.757812 -30.769531 38.34375 -32.34375 C 41.925781 -33.925781 45.132812 -34.71875 47.96875 -34.71875 C 50.382812 -34.71875 52.234375 -33.90625 53.515625 -32.28125 C 54.804688 -30.664062 55.453125 -28.609375 55.453125 -26.109375 Z M 52.703125 -27.609375 C 52.703125 -29.109375 52.367188 -30.414062 51.703125 -31.53125 C 51.046875 -32.65625 49.925781 -33.21875 48.34375 -33.21875 C 46.175781 -33.21875 43.90625 -32.320312 41.53125 -30.53125 C 39.15625 -28.75 36.945312 -26.441406 34.90625 -23.609375 C 32.863281 -20.773438 31.195312 -17.816406 29.90625 -14.734375 C 28.625 -11.660156 27.984375 -8.789062 27.984375 -6.125 C 27.984375 -4.375 28.316406 -3.164062 28.984375 -2.5 C 29.648438 -1.832031 30.398438 -1.5 31.234375 -1.5 C 33.722656 -1.5 36.21875 -2.3125 38.71875 -3.9375 C 41.21875 -5.5625 43.53125 -7.679688 45.65625 -10.296875 C 47.78125 -12.921875 49.484375 -15.753906 50.765625 -18.796875 C 52.054688 -21.835938 52.703125 -24.773438 52.703125 -27.609375 Z M 52.703125 -27.609375 "/></g></g></g><g fill="#ffffff" fill-opacity="1"><g transform="translate(1153.53563, 826.976878)"><g><path d="M 21.234375 -16.734375 C 20.816406 -16.734375 20.609375 -16.941406 20.609375 -17.359375 C 20.609375 -17.609375 21.003906 -18.191406 21.796875 -19.109375 C 22.585938 -20.023438 23.566406 -21.109375 24.734375 -22.359375 C 25.898438 -23.609375 26.984375 -24.816406 27.984375 -25.984375 C 30.640625 -28.898438 32.988281 -31.082031 35.03125 -32.53125 C 37.070312 -33.988281 38.96875 -34.71875 40.71875 -34.71875 C 42.300781 -34.71875 43.507812 -34.113281 44.34375 -32.90625 C 45.175781 -31.707031 45.59375 -30.359375 45.59375 -28.859375 C 45.59375 -27.191406 45.113281 -25.253906 44.15625 -23.046875 C 43.195312 -20.835938 42.09375 -18.734375 40.84375 -16.734375 C 39.59375 -14.734375 38.550781 -13.148438 37.71875 -11.984375 L 37.96875 -11.734375 C 41.300781 -15.648438 44.300781 -18.753906 46.96875 -21.046875 C 49.632812 -23.335938 51.257812 -25.316406 51.84375 -26.984375 C 52.5 -28.816406 53.492188 -30.5625 54.828125 -32.21875 C 56.160156 -33.882812 57.910156 -34.71875 60.078125 -34.71875 C 62.078125 -34.71875 63.078125 -34.050781 63.078125 -32.71875 C 63.078125 -31.476562 62.367188 -30.296875 60.953125 -29.171875 C 59.535156 -28.046875 57.910156 -26.835938 56.078125 -25.546875 C 54.242188 -24.253906 52.617188 -22.796875 51.203125 -21.171875 C 49.796875 -19.546875 49.09375 -17.648438 49.09375 -15.484375 C 49.09375 -14.234375 49.507812 -13.210938 50.34375 -12.421875 C 51.175781 -11.628906 52.128906 -11.234375 53.203125 -11.234375 C 55.285156 -11.234375 57.160156 -12.066406 58.828125 -13.734375 C 60.242188 -15.148438 61.242188 -16.296875 61.828125 -17.171875 C 62.410156 -18.046875 62.828125 -18.484375 63.078125 -18.484375 C 63.578125 -18.484375 63.828125 -18.273438 63.828125 -17.859375 C 63.828125 -17.691406 63.453125 -17.148438 62.703125 -16.234375 C 61.953125 -15.316406 61.285156 -14.523438 60.703125 -13.859375 C 59.453125 -12.441406 58.160156 -11.441406 56.828125 -10.859375 C 55.492188 -10.285156 54.242188 -10 53.078125 -10 C 51.753906 -10 50.507812 -10.429688 49.34375 -11.296875 C 48.175781 -12.171875 47.59375 -13.359375 47.59375 -14.859375 C 47.59375 -16.273438 47.800781 -17.546875 48.21875 -18.671875 C 48.632812 -19.796875 49.257812 -20.859375 50.09375 -21.859375 L 49.84375 -22.109375 C 46.59375 -19.109375 43.425781 -15.816406 40.34375 -12.234375 C 37.257812 -8.660156 34.140625 -4.832031 30.984375 -0.75 L 23.109375 0 C 27.359375 -6.832031 30.894531 -12.347656 33.71875 -16.546875 C 36.550781 -20.753906 38.695312 -24.023438 40.15625 -26.359375 C 41.613281 -28.691406 42.34375 -30.394531 42.34375 -31.46875 C 42.34375 -32.632812 41.632812 -33.21875 40.21875 -33.21875 C 39.382812 -33.21875 38.175781 -32.78125 36.59375 -31.90625 C 35.007812 -31.039062 32.972656 -29.316406 30.484375 -26.734375 C 27.984375 -24.148438 26.085938 -22.128906 24.796875 -20.671875 C 23.503906 -19.210938 22.628906 -18.191406 22.171875 -17.609375 C 21.710938 -17.023438 21.398438 -16.734375 21.234375 -16.734375 Z M 21.234375 -16.734375 "/></g></g></g><g fill="#ffffff" fill-opacity="1"><g transform="translate(1195.127144, 826.976878)"><g><path d="M 43.09375 -45.96875 L 50.46875 -57.953125 L 58.203125 -58.453125 L 50.09375 -45.96875 L 64.703125 -45.96875 C 65.117188 -45.96875 65.328125 -45.71875 65.328125 -45.21875 C 65.328125 -44.71875 65.117188 -44.46875 64.703125 -44.46875 L 49.21875 -44.46875 C 48.46875 -43.132812 47.175781 -41.050781 45.34375 -38.21875 C 43.507812 -35.382812 41.46875 -32.21875 39.21875 -28.71875 C 36.96875 -25.226562 34.800781 -21.753906 32.71875 -18.296875 C 30.644531 -14.835938 28.921875 -11.773438 27.546875 -9.109375 C 26.171875 -6.453125 25.484375 -4.539062 25.484375 -3.375 C 25.484375 -2.125 26.273438 -1.5 27.859375 -1.5 C 29.773438 -1.5 31.832031 -2.269531 34.03125 -3.8125 C 36.238281 -5.351562 38.757812 -7.539062 41.59375 -10.375 C 44.757812 -13.53125 46.757812 -15.691406 47.59375 -16.859375 C 48.425781 -18.023438 49.007812 -18.609375 49.34375 -18.609375 C 49.757812 -18.609375 49.96875 -18.359375 49.96875 -17.859375 C 49.96875 -17.773438 49.59375 -17.273438 48.84375 -16.359375 C 48.09375 -15.441406 47.195312 -14.421875 46.15625 -13.296875 C 45.113281 -12.171875 44.132812 -11.15625 43.21875 -10.25 C 39.382812 -6.414062 36.257812 -3.75 33.84375 -2.25 C 31.4375 -0.75 29.359375 0 27.609375 0 C 25.523438 -0.0820312 24.023438 -0.769531 23.109375 -2.0625 C 22.191406 -3.351562 21.734375 -4.707031 21.734375 -6.125 C 21.734375 -9.695312 22.753906 -13.234375 24.796875 -16.734375 C 26.835938 -20.234375 29.6875 -24.609375 33.34375 -29.859375 L 33.09375 -30.109375 C 31.925781 -28.691406 30.78125 -27.359375 29.65625 -26.109375 C 28.539062 -24.859375 27.148438 -23.273438 25.484375 -21.359375 C 25.148438 -20.941406 24.609375 -20.296875 23.859375 -19.421875 C 23.109375 -18.546875 22.421875 -17.753906 21.796875 -17.046875 C 21.171875 -16.335938 20.773438 -15.984375 20.609375 -15.984375 C 20.191406 -15.984375 19.984375 -16.148438 19.984375 -16.484375 C 19.984375 -16.734375 20.273438 -17.191406 20.859375 -17.859375 C 21.441406 -18.523438 22.941406 -20.234375 25.359375 -22.984375 C 26.609375 -24.398438 28.207031 -26.25 30.15625 -28.53125 C 32.113281 -30.820312 34.175781 -33.363281 36.34375 -36.15625 C 38.507812 -38.945312 40.550781 -41.71875 42.46875 -44.46875 L 37.96875 -44.46875 C 37.550781 -44.46875 37.34375 -44.71875 37.34375 -45.21875 C 37.34375 -45.71875 37.507812 -45.96875 37.84375 -45.96875 Z M 43.09375 -45.96875 "/></g></g></g></svg>